<mxfile host="app.diagrams.net" modified="2023-12-09T15:50:50.756Z" agent="Mozilla/5.0 (Windows NT 10.0; Win64; x64) AppleWebKit/537.36 (KHTML, like Gecko) Chrome/120.0.0.0 Safari/537.36" etag="VePDmcckeEbG6Yg6NgUj" version="22.1.7" type="device">
  <diagram name="Page-1" id="e7e014a7-5840-1c2e-5031-d8a46d1fe8dd">
    <mxGraphModel dx="880" dy="1273" grid="1" gridSize="10" guides="1" tooltips="1" connect="1" arrows="1" fold="1" page="1" pageScale="1" pageWidth="1169" pageHeight="827" background="none" math="0" shadow="0">
      <root>
        <mxCell id="0" />
        <mxCell id="1" parent="0" />
        <mxCell id="2" value="user" style="swimlane;whiteSpace=wrap;startSize=23;movable=1;resizable=1;rotatable=1;deletable=1;editable=1;locked=0;connectable=1;align=center;fontStyle=1" parent="1" vertex="1">
          <mxGeometry x="60" y="-490" width="570" height="2780" as="geometry" />
        </mxCell>
        <mxCell id="5" value="" style="ellipse;shape=startState;fillColor=#000000;strokeColor=#ff0000;align=center;" parent="2" vertex="1">
          <mxGeometry x="215" y="23" width="30" height="30" as="geometry" />
        </mxCell>
        <mxCell id="9" value="" style="endArrow=open;strokeColor=#FF0000;endFill=1;rounded=0;align=center;" parent="2" edge="1">
          <mxGeometry relative="1" as="geometry">
            <mxPoint x="229.5" y="157" as="sourcePoint" />
            <mxPoint x="229.5" y="217" as="targetPoint" />
          </mxGeometry>
        </mxCell>
        <mxCell id="11" value="" style="endArrow=open;strokeColor=#FF0000;endFill=1;rounded=0;align=center;" parent="2" edge="1">
          <mxGeometry relative="1" as="geometry">
            <mxPoint x="220" y="268" as="sourcePoint" />
            <mxPoint x="220" y="323" as="targetPoint" />
          </mxGeometry>
        </mxCell>
        <mxCell id="DC7z-_6WAenwthTICIqf-42" value="&lt;font style=&quot;font-size: 18px;&quot;&gt;login&amp;nbsp;&lt;/font&gt;" style="rounded=1;whiteSpace=wrap;html=1;" vertex="1" parent="2">
          <mxGeometry x="170" y="217" width="120" height="60" as="geometry" />
        </mxCell>
        <mxCell id="DC7z-_6WAenwthTICIqf-43" value="&lt;font style=&quot;font-size: 18px;&quot;&gt;menu&lt;/font&gt;" style="rounded=1;whiteSpace=wrap;html=1;" vertex="1" parent="2">
          <mxGeometry x="170" y="323" width="120" height="60" as="geometry" />
        </mxCell>
        <mxCell id="DC7z-_6WAenwthTICIqf-45" value="" style="endArrow=classic;html=1;rounded=0;align=center;" edge="1" parent="2">
          <mxGeometry width="50" height="50" relative="1" as="geometry">
            <mxPoint x="220" y="383" as="sourcePoint" />
            <mxPoint x="220" y="448" as="targetPoint" />
          </mxGeometry>
        </mxCell>
        <mxCell id="DC7z-_6WAenwthTICIqf-46" value="" style="rhombus;whiteSpace=wrap;html=1;" vertex="1" parent="2">
          <mxGeometry x="180" y="450" width="80" height="80" as="geometry" />
        </mxCell>
        <mxCell id="DC7z-_6WAenwthTICIqf-41" value="&lt;font style=&quot;font-size: 16px;&quot;&gt;sign up&lt;/font&gt;" style="rounded=1;whiteSpace=wrap;html=1;align=center;" vertex="1" parent="2">
          <mxGeometry x="170" y="93" width="120" height="60" as="geometry" />
        </mxCell>
        <mxCell id="DC7z-_6WAenwthTICIqf-50" value="" style="endArrow=classic;html=1;rounded=0;" edge="1" parent="2">
          <mxGeometry width="50" height="50" relative="1" as="geometry">
            <mxPoint x="229.5" y="43" as="sourcePoint" />
            <mxPoint x="229.5" y="83" as="targetPoint" />
          </mxGeometry>
        </mxCell>
        <mxCell id="DC7z-_6WAenwthTICIqf-52" value="" style="endArrow=classic;html=1;rounded=0;" edge="1" parent="2" target="DC7z-_6WAenwthTICIqf-53">
          <mxGeometry width="50" height="50" relative="1" as="geometry">
            <mxPoint x="180" y="489.5" as="sourcePoint" />
            <mxPoint x="120" y="489.5" as="targetPoint" />
          </mxGeometry>
        </mxCell>
        <mxCell id="DC7z-_6WAenwthTICIqf-53" value="&lt;font style=&quot;font-size: 14px;&quot;&gt;search for songs&lt;/font&gt;" style="rounded=1;whiteSpace=wrap;html=1;" vertex="1" parent="2">
          <mxGeometry x="30" y="465" width="120" height="50" as="geometry" />
        </mxCell>
        <mxCell id="DC7z-_6WAenwthTICIqf-54" value="" style="endArrow=classic;html=1;rounded=0;" edge="1" parent="2">
          <mxGeometry width="50" height="50" relative="1" as="geometry">
            <mxPoint x="219.5" y="530" as="sourcePoint" />
            <mxPoint x="219.5" y="580" as="targetPoint" />
          </mxGeometry>
        </mxCell>
        <mxCell id="DC7z-_6WAenwthTICIqf-57" value="" style="edgeStyle=orthogonalEdgeStyle;rounded=0;orthogonalLoop=1;jettySize=auto;html=1;" edge="1" parent="2" source="DC7z-_6WAenwthTICIqf-55" target="DC7z-_6WAenwthTICIqf-56">
          <mxGeometry relative="1" as="geometry" />
        </mxCell>
        <mxCell id="DC7z-_6WAenwthTICIqf-55" value="&lt;font style=&quot;font-size: 16px;&quot;&gt;playlist&lt;/font&gt;" style="rounded=1;whiteSpace=wrap;html=1;" vertex="1" parent="2">
          <mxGeometry x="160" y="583" width="120" height="60" as="geometry" />
        </mxCell>
        <mxCell id="DC7z-_6WAenwthTICIqf-59" value="" style="edgeStyle=orthogonalEdgeStyle;rounded=0;orthogonalLoop=1;jettySize=auto;html=1;" edge="1" parent="2" source="DC7z-_6WAenwthTICIqf-56" target="DC7z-_6WAenwthTICIqf-58">
          <mxGeometry relative="1" as="geometry" />
        </mxCell>
        <mxCell id="DC7z-_6WAenwthTICIqf-56" value="&lt;font style=&quot;font-size: 15px;&quot;&gt;create playlist&lt;/font&gt;" style="whiteSpace=wrap;html=1;rounded=1;" vertex="1" parent="2">
          <mxGeometry x="160" y="723" width="120" height="60" as="geometry" />
        </mxCell>
        <mxCell id="DC7z-_6WAenwthTICIqf-58" value="&lt;font style=&quot;font-size: 16px;&quot;&gt;add to playlist&lt;/font&gt;" style="whiteSpace=wrap;html=1;rounded=1;" vertex="1" parent="2">
          <mxGeometry x="160" y="863" width="120" height="60" as="geometry" />
        </mxCell>
        <mxCell id="DC7z-_6WAenwthTICIqf-61" value="" style="endArrow=none;html=1;rounded=0;" edge="1" parent="2">
          <mxGeometry width="50" height="50" relative="1" as="geometry">
            <mxPoint x="90" y="880" as="sourcePoint" />
            <mxPoint x="89.5" y="515" as="targetPoint" />
          </mxGeometry>
        </mxCell>
        <mxCell id="DC7z-_6WAenwthTICIqf-62" value="" style="endArrow=classic;html=1;rounded=0;entryX=-0.017;entryY=0.367;entryDx=0;entryDy=0;entryPerimeter=0;" edge="1" parent="2" target="DC7z-_6WAenwthTICIqf-58">
          <mxGeometry width="50" height="50" relative="1" as="geometry">
            <mxPoint x="90" y="880" as="sourcePoint" />
            <mxPoint x="130" y="863" as="targetPoint" />
          </mxGeometry>
        </mxCell>
        <mxCell id="DC7z-_6WAenwthTICIqf-63" value="" style="endArrow=classic;html=1;rounded=0;" edge="1" parent="2">
          <mxGeometry width="50" height="50" relative="1" as="geometry">
            <mxPoint x="219.5" y="923" as="sourcePoint" />
            <mxPoint x="220" y="980" as="targetPoint" />
          </mxGeometry>
        </mxCell>
        <mxCell id="DC7z-_6WAenwthTICIqf-75" value="" style="line;strokeWidth=1;fillColor=none;align=left;verticalAlign=middle;spacingTop=-1;spacingLeft=3;spacingRight=3;rotatable=0;labelPosition=right;points=[];portConstraint=eastwest;strokeColor=#000000;labelBorderColor=default;labelBackgroundColor=#000000;fontStyle=1" vertex="1" parent="2">
          <mxGeometry x="200" y="980" width="40" height="10" as="geometry" />
        </mxCell>
        <mxCell id="DC7z-_6WAenwthTICIqf-76" value="" style="endArrow=none;html=1;rounded=0;" edge="1" parent="2">
          <mxGeometry width="50" height="50" relative="1" as="geometry">
            <mxPoint x="130" y="983.5" as="sourcePoint" />
            <mxPoint x="200" y="983.5" as="targetPoint" />
          </mxGeometry>
        </mxCell>
        <mxCell id="DC7z-_6WAenwthTICIqf-77" value="" style="endArrow=classic;html=1;rounded=0;" edge="1" parent="2">
          <mxGeometry width="50" height="50" relative="1" as="geometry">
            <mxPoint x="129.5" y="980" as="sourcePoint" />
            <mxPoint x="129.5" y="1030" as="targetPoint" />
          </mxGeometry>
        </mxCell>
        <mxCell id="DC7z-_6WAenwthTICIqf-78" value="Delete song" style="rounded=1;whiteSpace=wrap;html=1;" vertex="1" parent="2">
          <mxGeometry x="70" y="1040" width="120" height="60" as="geometry" />
        </mxCell>
        <mxCell id="DC7z-_6WAenwthTICIqf-79" value="" style="endArrow=classic;html=1;rounded=0;" edge="1" parent="2">
          <mxGeometry width="50" height="50" relative="1" as="geometry">
            <mxPoint x="219.5" y="990" as="sourcePoint" />
            <mxPoint x="220" y="1191" as="targetPoint" />
          </mxGeometry>
        </mxCell>
        <mxCell id="DC7z-_6WAenwthTICIqf-80" value="&lt;font style=&quot;font-size: 15px;&quot;&gt;play song&lt;/font&gt;" style="rounded=1;whiteSpace=wrap;html=1;" vertex="1" parent="2">
          <mxGeometry x="160" y="1200" width="120" height="60" as="geometry" />
        </mxCell>
        <mxCell id="DC7z-_6WAenwthTICIqf-82" value="" style="line;strokeWidth=4;direction=west;html=1;perimeter=backbonePerimeter;points=[];outlineConnect=0;" vertex="1" parent="2">
          <mxGeometry x="160" y="980" width="110" height="10" as="geometry" />
        </mxCell>
        <mxCell id="DC7z-_6WAenwthTICIqf-84" value="" style="endArrow=classic;html=1;rounded=0;" edge="1" parent="2">
          <mxGeometry width="50" height="50" relative="1" as="geometry">
            <mxPoint x="219.5" y="1277" as="sourcePoint" />
            <mxPoint x="220" y="1420" as="targetPoint" />
          </mxGeometry>
        </mxCell>
        <mxCell id="DC7z-_6WAenwthTICIqf-83" value="" style="line;strokeWidth=4;html=1;perimeter=backbonePerimeter;points=[];outlineConnect=0;" vertex="1" parent="2">
          <mxGeometry x="170" y="1270" width="110" height="10" as="geometry" />
        </mxCell>
        <mxCell id="DC7z-_6WAenwthTICIqf-85" value="" style="endArrow=none;html=1;rounded=0;" edge="1" parent="2" source="DC7z-_6WAenwthTICIqf-83">
          <mxGeometry width="50" height="50" relative="1" as="geometry">
            <mxPoint x="290" y="1274.5" as="sourcePoint" />
            <mxPoint x="420" y="1275" as="targetPoint" />
          </mxGeometry>
        </mxCell>
        <mxCell id="DC7z-_6WAenwthTICIqf-86" value="" style="endArrow=classic;html=1;rounded=0;" edge="1" parent="2">
          <mxGeometry width="50" height="50" relative="1" as="geometry">
            <mxPoint x="420" y="1270" as="sourcePoint" />
            <mxPoint x="420" y="1340" as="targetPoint" />
          </mxGeometry>
        </mxCell>
        <mxCell id="DC7z-_6WAenwthTICIqf-87" value="&lt;font style=&quot;font-size: 15px;&quot;&gt;previous&lt;/font&gt;" style="rounded=1;whiteSpace=wrap;html=1;" vertex="1" parent="2">
          <mxGeometry x="360" y="1337" width="120" height="60" as="geometry" />
        </mxCell>
        <mxCell id="DC7z-_6WAenwthTICIqf-88" value="" style="rhombus;whiteSpace=wrap;html=1;" vertex="1" parent="2">
          <mxGeometry x="180" y="1420" width="80" height="80" as="geometry" />
        </mxCell>
        <mxCell id="DC7z-_6WAenwthTICIqf-89" value="" style="endArrow=none;html=1;rounded=0;" edge="1" parent="2">
          <mxGeometry width="50" height="50" relative="1" as="geometry">
            <mxPoint x="110" y="1459.5" as="sourcePoint" />
            <mxPoint x="180" y="1459.5" as="targetPoint" />
          </mxGeometry>
        </mxCell>
        <mxCell id="DC7z-_6WAenwthTICIqf-90" value="" style="endArrow=classic;html=1;rounded=0;" edge="1" parent="2">
          <mxGeometry width="50" height="50" relative="1" as="geometry">
            <mxPoint x="110" y="1460" as="sourcePoint" />
            <mxPoint x="110" y="1520" as="targetPoint" />
          </mxGeometry>
        </mxCell>
        <mxCell id="DC7z-_6WAenwthTICIqf-91" value="&lt;font style=&quot;font-size: 16px;&quot;&gt;next song&lt;/font&gt;" style="rounded=1;whiteSpace=wrap;html=1;" vertex="1" parent="2">
          <mxGeometry x="50" y="1520" width="120" height="60" as="geometry" />
        </mxCell>
        <mxCell id="DC7z-_6WAenwthTICIqf-92" value="" style="endArrow=classic;html=1;rounded=0;" edge="1" parent="2">
          <mxGeometry width="50" height="50" relative="1" as="geometry">
            <mxPoint x="219.5" y="1500" as="sourcePoint" />
            <mxPoint x="220" y="1640" as="targetPoint" />
          </mxGeometry>
        </mxCell>
        <mxCell id="DC7z-_6WAenwthTICIqf-93" value="&lt;font style=&quot;font-size: 16px;&quot;&gt;Stop song&lt;/font&gt;" style="rounded=1;whiteSpace=wrap;html=1;" vertex="1" parent="2">
          <mxGeometry x="160" y="1640" width="120" height="60" as="geometry" />
        </mxCell>
        <mxCell id="DC7z-_6WAenwthTICIqf-94" value="" style="endArrow=classic;html=1;rounded=0;" edge="1" parent="2">
          <mxGeometry width="50" height="50" relative="1" as="geometry">
            <mxPoint x="219.5" y="1700" as="sourcePoint" />
            <mxPoint x="219.5" y="1769" as="targetPoint" />
          </mxGeometry>
        </mxCell>
        <mxCell id="DC7z-_6WAenwthTICIqf-95" value="&lt;font style=&quot;font-size: 15px;&quot;&gt;Share song list&lt;/font&gt;" style="rounded=1;whiteSpace=wrap;html=1;" vertex="1" parent="2">
          <mxGeometry x="160" y="1770" width="120" height="60" as="geometry" />
        </mxCell>
        <mxCell id="DC7z-_6WAenwthTICIqf-96" value="" style="endArrow=classic;html=1;rounded=0;" edge="1" parent="2">
          <mxGeometry width="50" height="50" relative="1" as="geometry">
            <mxPoint x="219.5" y="1830" as="sourcePoint" />
            <mxPoint x="219.5" y="1890" as="targetPoint" />
          </mxGeometry>
        </mxCell>
        <mxCell id="DC7z-_6WAenwthTICIqf-97" value="" style="line;strokeWidth=4;html=1;perimeter=backbonePerimeter;points=[];outlineConnect=0;" vertex="1" parent="2">
          <mxGeometry x="185" y="1890" width="70" height="10" as="geometry" />
        </mxCell>
        <mxCell id="DC7z-_6WAenwthTICIqf-99" value="" style="endArrow=none;html=1;rounded=0;" edge="1" parent="2">
          <mxGeometry width="50" height="50" relative="1" as="geometry">
            <mxPoint x="70" y="1895" as="sourcePoint" />
            <mxPoint x="185" y="1894.5" as="targetPoint" />
          </mxGeometry>
        </mxCell>
        <mxCell id="DC7z-_6WAenwthTICIqf-100" value="" style="endArrow=classic;html=1;rounded=0;" edge="1" parent="2">
          <mxGeometry width="50" height="50" relative="1" as="geometry">
            <mxPoint x="70" y="1890" as="sourcePoint" />
            <mxPoint x="70" y="1960" as="targetPoint" />
          </mxGeometry>
        </mxCell>
        <mxCell id="DC7z-_6WAenwthTICIqf-101" value="Add icons for playlist" style="rounded=1;whiteSpace=wrap;html=1;" vertex="1" parent="2">
          <mxGeometry x="10" y="1960" width="120" height="60" as="geometry" />
        </mxCell>
        <mxCell id="DC7z-_6WAenwthTICIqf-102" value="" style="endArrow=none;html=1;rounded=0;" edge="1" parent="2">
          <mxGeometry width="50" height="50" relative="1" as="geometry">
            <mxPoint x="255" y="1894.5" as="sourcePoint" />
            <mxPoint x="410" y="1895" as="targetPoint" />
          </mxGeometry>
        </mxCell>
        <mxCell id="DC7z-_6WAenwthTICIqf-103" value="" style="endArrow=classic;html=1;rounded=0;" edge="1" parent="2">
          <mxGeometry width="50" height="50" relative="1" as="geometry">
            <mxPoint x="410" y="1890" as="sourcePoint" />
            <mxPoint x="410" y="1960" as="targetPoint" />
          </mxGeometry>
        </mxCell>
        <mxCell id="DC7z-_6WAenwthTICIqf-104" value="Invite to playlist" style="rounded=1;whiteSpace=wrap;html=1;" vertex="1" parent="2">
          <mxGeometry x="350" y="1960" width="120" height="60" as="geometry" />
        </mxCell>
        <mxCell id="DC7z-_6WAenwthTICIqf-105" value="" style="endArrow=classic;html=1;rounded=0;" edge="1" parent="2">
          <mxGeometry width="50" height="50" relative="1" as="geometry">
            <mxPoint x="219.5" y="1890" as="sourcePoint" />
            <mxPoint x="220" y="2107" as="targetPoint" />
          </mxGeometry>
        </mxCell>
        <mxCell id="DC7z-_6WAenwthTICIqf-106" value="&lt;font style=&quot;font-size: 15px;&quot;&gt;Collaboration&lt;/font&gt;" style="rounded=1;whiteSpace=wrap;html=1;" vertex="1" parent="2">
          <mxGeometry x="160" y="2110" width="120" height="60" as="geometry" />
        </mxCell>
        <mxCell id="DC7z-_6WAenwthTICIqf-107" value="" style="endArrow=classic;html=1;rounded=0;" edge="1" parent="2" target="DC7z-_6WAenwthTICIqf-108">
          <mxGeometry width="50" height="50" relative="1" as="geometry">
            <mxPoint x="219.5" y="2170" as="sourcePoint" />
            <mxPoint x="219.5" y="2260" as="targetPoint" />
          </mxGeometry>
        </mxCell>
        <mxCell id="DC7z-_6WAenwthTICIqf-109" value="" style="endArrow=classic;html=1;rounded=0;" edge="1" parent="2" target="DC7z-_6WAenwthTICIqf-110">
          <mxGeometry width="50" height="50" relative="1" as="geometry">
            <mxPoint x="180" y="2260" as="sourcePoint" />
            <mxPoint x="110" y="2260" as="targetPoint" />
          </mxGeometry>
        </mxCell>
        <mxCell id="DC7z-_6WAenwthTICIqf-110" value="&lt;font style=&quot;font-size: 17px;&quot;&gt;create song&lt;/font&gt;" style="rounded=1;whiteSpace=wrap;html=1;" vertex="1" parent="2">
          <mxGeometry x="10" y="2230" width="120" height="60" as="geometry" />
        </mxCell>
        <mxCell id="DC7z-_6WAenwthTICIqf-111" value="" style="endArrow=classic;html=1;rounded=0;" edge="1" parent="2">
          <mxGeometry width="50" height="50" relative="1" as="geometry">
            <mxPoint x="219.5" y="2300" as="sourcePoint" />
            <mxPoint x="219.5" y="2372" as="targetPoint" />
          </mxGeometry>
        </mxCell>
        <mxCell id="DC7z-_6WAenwthTICIqf-112" value="&lt;font style=&quot;font-size: 16px;&quot;&gt;listen songs&lt;/font&gt;" style="rounded=1;whiteSpace=wrap;html=1;" vertex="1" parent="2">
          <mxGeometry x="155" y="2370" width="120" height="60" as="geometry" />
        </mxCell>
        <mxCell id="DC7z-_6WAenwthTICIqf-113" value="" style="endArrow=classic;html=1;rounded=0;" edge="1" parent="2">
          <mxGeometry width="50" height="50" relative="1" as="geometry">
            <mxPoint x="219.5" y="2430" as="sourcePoint" />
            <mxPoint x="219.5" y="2530" as="targetPoint" />
          </mxGeometry>
        </mxCell>
        <mxCell id="DC7z-_6WAenwthTICIqf-115" value="" style="ellipse;whiteSpace=wrap;html=1;aspect=fixed;direction=east;" vertex="1" parent="2">
          <mxGeometry x="195" y="2530" width="50" height="50" as="geometry" />
        </mxCell>
        <mxCell id="DC7z-_6WAenwthTICIqf-116" value="" style="ellipse;whiteSpace=wrap;html=1;aspect=fixed;fontColor=#000000;labelBackgroundColor=none;labelBorderColor=none;fillColor=#000000;" vertex="1" parent="2">
          <mxGeometry x="200" y="2535" width="40" height="40" as="geometry" />
        </mxCell>
        <mxCell id="DC7z-_6WAenwthTICIqf-108" value="" style="rhombus;whiteSpace=wrap;html=1;" vertex="1" parent="2">
          <mxGeometry x="180" y="2220" width="80" height="80" as="geometry" />
        </mxCell>
        <mxCell id="DC7z-_6WAenwthTICIqf-179" value="" style="endArrow=none;html=1;rounded=0;" edge="1" parent="2">
          <mxGeometry width="50" height="50" relative="1" as="geometry">
            <mxPoint x="100" y="1960" as="sourcePoint" />
            <mxPoint x="100" y="1730" as="targetPoint" />
          </mxGeometry>
        </mxCell>
        <mxCell id="DC7z-_6WAenwthTICIqf-180" value="" style="endArrow=none;html=1;rounded=0;" edge="1" parent="2">
          <mxGeometry width="50" height="50" relative="1" as="geometry">
            <mxPoint x="100" y="1732" as="sourcePoint" />
            <mxPoint x="420" y="1731" as="targetPoint" />
          </mxGeometry>
        </mxCell>
        <mxCell id="DC7z-_6WAenwthTICIqf-181" value="" style="endArrow=none;html=1;rounded=0;" edge="1" parent="2">
          <mxGeometry width="50" height="50" relative="1" as="geometry">
            <mxPoint x="419.5" y="1731" as="sourcePoint" />
            <mxPoint x="420" y="1420" as="targetPoint" />
          </mxGeometry>
        </mxCell>
        <mxCell id="DC7z-_6WAenwthTICIqf-182" value="" style="endArrow=none;html=1;rounded=0;" edge="1" parent="2">
          <mxGeometry width="50" height="50" relative="1" as="geometry">
            <mxPoint x="310" y="1420" as="sourcePoint" />
            <mxPoint x="420" y="1420" as="targetPoint" />
          </mxGeometry>
        </mxCell>
        <mxCell id="DC7z-_6WAenwthTICIqf-183" value="" style="endArrow=none;html=1;rounded=0;" edge="1" parent="2">
          <mxGeometry width="50" height="50" relative="1" as="geometry">
            <mxPoint x="310" y="1420" as="sourcePoint" />
            <mxPoint x="310" y="660" as="targetPoint" />
          </mxGeometry>
        </mxCell>
        <mxCell id="DC7z-_6WAenwthTICIqf-185" value="" style="endArrow=classic;html=1;rounded=0;entryX=1;entryY=0.25;entryDx=0;entryDy=0;" edge="1" parent="2" target="DC7z-_6WAenwthTICIqf-55">
          <mxGeometry width="50" height="50" relative="1" as="geometry">
            <mxPoint x="310" y="660" as="sourcePoint" />
            <mxPoint x="290" y="590" as="targetPoint" />
          </mxGeometry>
        </mxCell>
        <mxCell id="DC7z-_6WAenwthTICIqf-186" value="" style="endArrow=none;html=1;rounded=0;" edge="1" parent="2">
          <mxGeometry width="50" height="50" relative="1" as="geometry">
            <mxPoint x="470" y="1989.5" as="sourcePoint" />
            <mxPoint x="540" y="1989.5" as="targetPoint" />
          </mxGeometry>
        </mxCell>
        <mxCell id="DC7z-_6WAenwthTICIqf-187" value="" style="endArrow=none;html=1;rounded=0;" edge="1" parent="2">
          <mxGeometry width="50" height="50" relative="1" as="geometry">
            <mxPoint x="540" y="1990" as="sourcePoint" />
            <mxPoint x="540" y="620" as="targetPoint" />
          </mxGeometry>
        </mxCell>
        <mxCell id="DC7z-_6WAenwthTICIqf-189" value="" style="endArrow=none;html=1;rounded=0;" edge="1" parent="2">
          <mxGeometry width="50" height="50" relative="1" as="geometry">
            <mxPoint x="370" y="620" as="sourcePoint" />
            <mxPoint x="540" y="620" as="targetPoint" />
          </mxGeometry>
        </mxCell>
        <mxCell id="DC7z-_6WAenwthTICIqf-190" value="" style="endArrow=classic;html=1;rounded=0;entryX=0.983;entryY=0.633;entryDx=0;entryDy=0;entryPerimeter=0;" edge="1" parent="2" target="DC7z-_6WAenwthTICIqf-55">
          <mxGeometry width="50" height="50" relative="1" as="geometry">
            <mxPoint x="370" y="620" as="sourcePoint" />
            <mxPoint x="290" y="620" as="targetPoint" />
          </mxGeometry>
        </mxCell>
        <mxCell id="DC7z-_6WAenwthTICIqf-191" value="" style="endArrow=none;html=1;rounded=0;" edge="1" parent="2">
          <mxGeometry width="50" height="50" relative="1" as="geometry">
            <mxPoint x="130" y="1340" as="sourcePoint" />
            <mxPoint x="130" y="1100" as="targetPoint" />
          </mxGeometry>
        </mxCell>
        <mxCell id="DC7z-_6WAenwthTICIqf-192" value="" style="endArrow=classic;html=1;rounded=0;" edge="1" parent="2">
          <mxGeometry width="50" height="50" relative="1" as="geometry">
            <mxPoint x="130" y="1337" as="sourcePoint" />
            <mxPoint x="220" y="1337" as="targetPoint" />
          </mxGeometry>
        </mxCell>
        <mxCell id="DC7z-_6WAenwthTICIqf-193" value="" style="endArrow=none;html=1;rounded=0;" edge="1" parent="2">
          <mxGeometry width="50" height="50" relative="1" as="geometry">
            <mxPoint x="270" y="984.5" as="sourcePoint" />
            <mxPoint x="400" y="985" as="targetPoint" />
          </mxGeometry>
        </mxCell>
        <mxCell id="DC7z-_6WAenwthTICIqf-194" value="" style="endArrow=classic;html=1;rounded=0;" edge="1" parent="2">
          <mxGeometry width="50" height="50" relative="1" as="geometry">
            <mxPoint x="400" y="980" as="sourcePoint" />
            <mxPoint x="400" y="1050" as="targetPoint" />
          </mxGeometry>
        </mxCell>
        <mxCell id="DC7z-_6WAenwthTICIqf-195" value="Delete playlist" style="rounded=1;whiteSpace=wrap;html=1;" vertex="1" parent="2">
          <mxGeometry x="340" y="1050" width="120" height="60" as="geometry" />
        </mxCell>
        <mxCell id="DC7z-_6WAenwthTICIqf-196" value="" style="endArrow=none;html=1;rounded=0;" edge="1" parent="2">
          <mxGeometry width="50" height="50" relative="1" as="geometry">
            <mxPoint x="409.5" y="1180" as="sourcePoint" />
            <mxPoint x="409.5" y="1110" as="targetPoint" />
          </mxGeometry>
        </mxCell>
        <mxCell id="DC7z-_6WAenwthTICIqf-197" value="" style="endArrow=none;html=1;rounded=0;" edge="1" parent="2">
          <mxGeometry width="50" height="50" relative="1" as="geometry">
            <mxPoint x="410" y="1180" as="sourcePoint" />
            <mxPoint x="490" y="1180" as="targetPoint" />
          </mxGeometry>
        </mxCell>
        <mxCell id="DC7z-_6WAenwthTICIqf-198" value="" style="endArrow=none;html=1;rounded=0;" edge="1" parent="2">
          <mxGeometry width="50" height="50" relative="1" as="geometry">
            <mxPoint x="490" y="1180" as="sourcePoint" />
            <mxPoint x="490" y="750" as="targetPoint" />
          </mxGeometry>
        </mxCell>
        <mxCell id="DC7z-_6WAenwthTICIqf-199" value="" style="endArrow=none;html=1;rounded=0;" edge="1" parent="2">
          <mxGeometry width="50" height="50" relative="1" as="geometry">
            <mxPoint x="360" y="753" as="sourcePoint" />
            <mxPoint x="490" y="752.5" as="targetPoint" />
          </mxGeometry>
        </mxCell>
        <mxCell id="DC7z-_6WAenwthTICIqf-200" value="" style="endArrow=classic;html=1;rounded=0;entryX=1;entryY=0.5;entryDx=0;entryDy=0;" edge="1" parent="2" target="DC7z-_6WAenwthTICIqf-56">
          <mxGeometry width="50" height="50" relative="1" as="geometry">
            <mxPoint x="360" y="751.5" as="sourcePoint" />
            <mxPoint x="290" y="754.5" as="targetPoint" />
          </mxGeometry>
        </mxCell>
        <mxCell id="4" value="Thread 3" style="swimlane;whiteSpace=wrap" parent="1" vertex="1">
          <mxGeometry x="724.5" y="128" width="280" height="570" as="geometry" />
        </mxCell>
        <mxCell id="33" value="process&#xa;command" style="" parent="4" vertex="1">
          <mxGeometry x="90" y="405" width="110" height="50" as="geometry" />
        </mxCell>
        <mxCell id="37" value="" style="edgeStyle=none;strokeColor=#FF0000;endArrow=open;endFill=1;rounded=0" parent="4" target="33" edge="1">
          <mxGeometry width="100" height="100" relative="1" as="geometry">
            <mxPoint x="-30" y="429.5" as="sourcePoint" />
            <mxPoint x="90" y="429.5" as="targetPoint" />
          </mxGeometry>
        </mxCell>
        <mxCell id="38" value="" style="ellipse;shape=endState;fillColor=#000000;strokeColor=#ff0000" parent="4" vertex="1">
          <mxGeometry x="130" y="500" width="30" height="30" as="geometry" />
        </mxCell>
        <mxCell id="39" value="" style="endArrow=open;strokeColor=#FF0000;endFill=1;rounded=0" parent="4" source="33" target="38" edge="1">
          <mxGeometry relative="1" as="geometry" />
        </mxCell>
      </root>
    </mxGraphModel>
  </diagram>
</mxfile>
